<?xml version="1.0"?>
<svg xmlns="http://www.w3.org/2000/svg" xmlns:xlink="http://www.w3.org/1999/xlink" xmlns:svgjs="http://svgjs.com/svgjs" version="1.1" width="512" height="512" x="0" y="0" viewBox="0 0 60 60" style="enable-background:new 0 0 512 512" xml:space="preserve" class=""><g><g xmlns="http://www.w3.org/2000/svg" id="011---Investing" fill="none"><g id="Icons" transform="translate(7 1)"><path id="Shape" d="m21.05 42.3-.42.18c-.52956.2040387-.9475047.6234449-1.1496936 1.153714-.2021889.530269-.1695829 1.1214679.0896936 1.626286.9414941 1.7666045 1.4326698 3.7381769 1.43 5.74 0 5-4 7-9 7-.5008631.0020979-1.0015091-.0212656-1.5-.07-4.28-.37-7.5-2.44-7.5-6.93-.0026698-2.0018231.48850589-3.9733955 1.43-5.74.25927646-.5048181.2918825-1.096017.08969358-1.626286-.20218892-.5302691-.62013356-.9496753-1.14969358-1.153714l-.37-.18c-.55465765-.2404958-.97076714-.7189746-1.13197071-1.3016381s-.05019992-1.2069769.30197071-1.6983619c.11327987-.1728801.25533365-.3250806.42-.45.53352015-.4386445 1.25560908-.5709645 1.91-.35 1.9633132.6708095 3.99078054 1.1366243 6.05 1.39.4808651.06405.9649758.1007756 1.45.11 2.194269-.0852219 4.3670951-.4652983 6.46-1.13l1.09-.35c1.0438182-.4142135 2.2257864.0961819 2.6399999 1.14.4142136 1.0438182-.0961818 2.2257864-1.1399999 2.64z" fill="#ffffff" data-original="#783e22" style="" class=""/><path id="Shape" d="m18.05 42.3-.42.18c-.52956.2040387-.9475047.6234449-1.1496936 1.153714-.2021889.530269-.1695829 1.1214679.0896936 1.626286.9414941 1.7666045 1.4326698 3.7381769 1.43 5.74 0 4.49-3.22 6.56-7.5 6.93-4.28-.37-7.5-2.44-7.5-6.93-.0026698-2.0018231.48850589-3.9733955 1.43-5.74.25927646-.5048181.2918825-1.096017.08969358-1.626286-.20218892-.5302691-.62013356-.9496753-1.14969358-1.153714l-.37-.18c-.55465765-.2404958-.97076714-.7189746-1.13197071-1.3016381s-.05019992-1.2069769.30197071-1.6983619c.11327987-.1728801.25533365-.3250806.42-.45 2.07591527.6670965 4.23165261 1.0538513 6.41 1.15.50132894-.0006682 1.0021878-.0307197 1.5-.09.4978122.0592803.9986711.0893318 1.5.09 2.194269-.0852219 4.3670951-.4652983 6.46-1.13l.42.45c.3444811.4902824.4509885 1.1091877.2902159 1.6864192-.1607725.5772315-.5718847 1.0519676-1.1202159 1.2935808z" fill="#0190fd" data-original="#a0522d" style="" class=""/><path id="Shape" d="m51.14 4.88-6.14-.88s-23-4-27-4c-1.14 0-2.7 1.58-4.2 3.75-2.48 3.57-4.8 8.76-4.8 11.25v9c-.64602606.7746411-.99989825 1.7513284-1 2.76-.03107023 1.4421346.96860094 2.7022243 2.38 3 2.0852687.4675605 4.2709053.0158623 6-1.24 3.53-2.25 6.51-6.52 11.62-6.52 3.1751298-.0445222 6.3248139-.5739659 9.34-1.57 2.0019152-.6316304 4.114117-.836037 6.2-.6 1.09.13 5.28.72 7.32 1 .2884984.0408059.5804464-.0462452.7994864-.2383855.21904-.1921404.3433852-.4702587.3405136-.7616145v-14c-.0194589-.48286947-.3814427-.88273533-.86-.95zm-28.37 11c-2.15 1.46-6.55 4.38-8.77 5.12.5984842-1.2526802.9385777-2.6130543 1-4 1.3569108-.8592296 2.1267628-2.3989336 2-4 1.4176627-.4413588 2.8742983-.7460803 4.35-.91.9427541-.1094812 1.8326269.4587005 2.13 1.36l.05.13c.2824588.8444442-.0273664 1.7739199-.76 2.28z" fill="#ffffff" data-original="#ffe0b2" style="" class=""/><path id="Shape" d="m51.14 4.88-6.14-.88s-23-4-27-4c-.2354657.01257125-.4663203.07028489-.68.17 7.09.77 24.68 3.83 24.68 3.83l6.14.88c.4970163.07024958.8649401.49806797.86 1v14c-.0037034.2588682-.1076592.5062113-.29.69l2.15.3c.2884984.0408059.5804464-.0462452.7994864-.2383855.21904-.1921404.3433852-.4702587.3405136-.7616145v-14c-.0000755-.49813811-.3667678-.92026067-.86-.99z" fill="#ffffff" data-original="#dfc49c" style="" class=""/><path id="Shape" d="m14 21c-1.8510822.6543706-3.5515167 1.6746313-5 3z" fill="#ffffff" data-original="#ffe0b2" style="" class=""/><path id="Shape" d="m17 31c0 2.7614237-2.2385763 5-5 5-2.76142375 0-5-2.2385763-5-5 .00050929-1.1574208.41154589-2.2771412 1.16-3.16.33173489 1.0139827 1.17701923 1.7755002 2.22 2 2.0852687.4675605 4.2709053.0158623 6-1.24.4097881.7333029.6233441 1.5599713.62 2.4z" fill="#ffdc00" data-original="#ffdc00" style=""/><path id="Shape" d="m16.34 28.57c-.7753069.5100054-1.6208803.9041571-2.51 1.17.1131133.4104354.1702965.8342633.17 1.26-.0085783 2.1763144-1.4239069 4.0971175-3.5 4.75 1.5166494.5001452 3.1814309.2378518 4.4708248-.7043976s2.044989-2.4486927 2.0291752-4.0456024c-.0036375-.8537894-.2312135-1.6916832-.66-2.43z" fill="#fec108" data-original="#fec108" style=""/><path id="Shape" d="m13.8 3.75c-2.48 3.57-4.8 8.76-4.8 11.25v.57c-.33896774.4572009-.7472135.8586988-1.21 1.19-.31180221.218814-.55188159.5250021-.69.88l-2.2 5.13c-.23936795.6841636-.82554999 1.1886556-1.53773702 1.3234386-.71218704.1347831-1.44218091-.1206194-1.915-.67-.47281909-.5493805-.61663092-1.309275-.37726298-1.9934386l2.07-7.58c.15405024-.564619.38988116-1.1036611.7-1.6l3.22-5.14c.84061565-1.34890829 2.18210192-2.3091679 3.73-2.67z" fill="#ffffff" data-original="#dfc49c" style="" class=""/></g><g id="Layer_4" fill="#000"><path id="Shape" d="m58.28 4.89c-10.9-1.56-29.05-4.89-33.28-4.89-1.41 0-3.15 1.61-4.78 3.86l-2.65.61c-1.8113676.41052108-3.3821414 1.53095831-4.36 3.11l-3.21 5.14c-.78 1.24-.78 1.73-2.88 9.45-.55228472 1.576773.27822707 3.3027152 1.85500001 3.855 1.57677299.5522847 3.30271519-.2782271 3.85499999-1.855l2.17-5.1v5.58c-.8122921 1.1642391-1.1420266 2.5978676-.92 4-1.6330931 2.3469365-1.3832303 5.5201849.5970569 7.5826025 1.9802873 2.0624176 5.1407693 2.4409544 7.5520968.9045287 2.4113274-1.5364257 3.4035045-4.5609127 2.3708463-7.2271312 3.4-2.49 6.05-5.91 10.4-5.91 3.2771934-.0446982 6.528213-.5910313 9.64-1.62 1.8687041-.5940875 3.8428612-.7816153 5.79-.55 1 .12 5 .68 7.29 1 .5769967.0816119 1.1608928-.0924904 1.5989728-.476771.4380799-.3842807.6867703-.9405175.6810272-1.523229v-14c-.0198018-.98104306-.7483926-1.80282582-1.72-1.94zm-44.06 12c-.88.6-.88.95-3.24 6.45-.1617672.3197504-.4728555.5372958-.8287016.5795149-.35584619.042219-.70920239-.096494-.9412984-.3695149-.19690877-.2360041-.27434836-.54945-.21-.85 2.25-8.26 2.13-8.09 2.65-8.92l3.25-5.14c.6995365-1.12041995 1.8139981-1.9185182 3.1-2.22l.62-.15c-1.49 2.52-3.64 7-3.64 9.92-.2203049.2784599-.4757653.5271977-.76.74zm4.78 19.11c-1.2819728-.0052419-2.4837586-.6246279-3.2318888-1.6656769-.7481302-1.0410489-.9519467-2.3776068-.5481112-3.5943231.5406896.5177984 1.2108042.8804893 1.94 1.05 1.9331379.4566229 3.967249.1711336 5.7-.8.312383 1.1970555.053286 2.4712931-.70177 3.451301-.7550559.9800079-1.9210903 1.5554874-3.15823 1.558699zm31.65-16.16c-2.2270439-.2624976-4.4844851-.0442555-6.62.64-2.9158028.9604444-5.9604488 1.4729429-9.03 1.52-8 0-10.93 9.3-17.39 7.84-.9502315-.188737-1.6285624-1.0313839-1.61-2-.0070277-.7569977.243317-1.4939279.71-2.09 1.3264758-1.230261 2.8972505-2.1672742 4.61-2.75 2.3-.77 6.63-3.63 9-5.26 1.1344478-.8118086 1.5842875-2.2830451 1.0978065-3.5904629s-1.7886265-2.1267528-3.1778065-1.9995371c-1.4697439.1491576-2.9225769.4336986-4.34.85-.4568378-.1055818-.8714216-.3459708-1.19-.69-.3921222-.3921222-1.0278778-.3921222-1.42 0s-.3921222 1.0278778 0 1.42c.4660354.4719323 1.0290116.8370138 1.65 1.07-.0895758.8574245-.5091592 1.6463846-1.17 2.2-.4053779-.1226197-.7710894-.3503269-1.06-.66-.3921222-.3921222-1.0278778-.3921222-1.42 0s-.3921222 1.0278778 0 1.42c.4660354.4719323 1.0290116.8370138 1.65 1.07-.1237795.8353297-.3522429 1.6517505-.68 2.43-1.1421158.4286775-2.2350189.9784815-3.26 1.64v-6.9c0-4.15 6-14 8-14 4 0 21.88 3.28 33 4.87v14c-2.28-.35-6.27-.87-7.35-1.03zm-27.65-1.3c1.1575108-.9318517 1.8807624-2.2987973 2-3.78 1.1461942-.3216345 2.316757-.5490581 3.5-.68.4731379-.05727.9209442.2273172 1.07.68v.14c.1238134.4080511-.0247496.8497249-.37 1.1-2.59 1.77-4.82 3.18-6.47 4.07.1268528-.5028057.2170892-1.0141457.27-1.53z" fill="#6c6c6c" data-original="#000000" style="" class=""/><path id="Shape" d="m0 49c0 .5522847.44771525 1 1 1 4.38 0 6.72-1.93 9.06-3.15-.69642991 1.6278022-1.05696916 3.3794788-1.06 5.15 0 5 3.74 8 10 8s10-3 10-8c-.0030308-1.7705212-.3635701-3.5221978-1.06-5.15 2.4 1.25 4.7 3.15 9.06 3.15.5522847 0 1-.4477153 1-1s-.4477153-1-1-1c-4.4 0-6.35-2.28-9.24-3.43.51-.39 1.88-.6 2.35-2.3.3309392-1.0848797.021738-2.2636454-.7991-3.0464033-.8208379-.7827578-2.0129517-1.0356585-3.0809-.6535967-5.63 1.88-8.82 1.88-14.46 0-1.0679483-.3820618-2.26006209-.1291611-3.08090004.6535967-.82083794.7827579-1.13003918 1.9615236-.79909996 3.0464033.29578233 1.024489 1.08978864 1.8297845 2.11 2.14.0859061.0438935.1664421.0975842.24.16-2.9 1.16-4.85 3.43-9.24 3.43-.55228475 0-1 .4477153-1 1zm9.81-7.27c-.13457813-.3736954-.03523639-.7916137.2531044-1.0647787.2883408-.2731649.7110149-.349788 1.0768956-.1952213 6.06 2 9.65 2 15.72 0 .5301934-.2098682 1.1301318.0498066 1.34.58s-.0498066 1.1301318-.58 1.34c-.1163648.0611633-.236624.1146119-.36.16-.793533.3097785-1.4179556.9423023-1.71748 1.7397623-.2995245.79746-.2459053 1.6846549.14748 2.4402377.8643049 1.6218626 1.3143173 3.432218 1.31 5.27 0 5.22-5 6-8 6s-8-.78-8-6c-.0043173-1.837782.4456951-3.6481374 1.31-5.27.3933853-.7555828.4470045-1.6427777.14748-2.4402377-.2995244-.79746-.923947-1.4299838-1.71748-1.7397623-.44-.17-.74-.33-.93-.82z" fill="#6c6c6c" data-original="#000000" style="" class=""/><path id="Shape" d="m15 46h2c.5522847 0 1-.4477153 1-1s-.4477153-1-1-1h-2c-.5522847 0-1 .4477153-1 1s.4477153 1 1 1z" fill="#6c6c6c" data-original="#000000" style="" class=""/><path id="Shape" d="m21 46h2c.5522847 0 1-.4477153 1-1s-.4477153-1-1-1h-2c-.5522847 0-1 .4477153-1 1s.4477153 1 1 1z" fill="#6c6c6c" data-original="#000000" style="" class=""/><path id="Shape" d="m29.29 32.29-1 1c-.3921221.3921222-.3921221 1.0278778 0 1.42.3921222.3921221 1.0278778.3921221 1.42 0l1-1c.3921221-.3921222.3921221-1.0278778 0-1.42-.3921222-.3921221-1.0278778-.3921221-1.42 0z" fill="#6c6c6c" data-original="#000000" style="" class=""/><path id="Shape" d="m32 38h2c.5522847 0 1-.4477153 1-1s-.4477153-1-1-1h-2c-.5522847 0-1 .4477153-1 1s.4477153 1 1 1z" fill="#6c6c6c" data-original="#000000" style="" class=""/><path id="Shape" d="m9 35c.40626507.0023626.77358004-.2413038.92937095-.6165185.15579095-.3752147.069089-.807391-.21937095-1.0934815l-1-1c-.25365856-.2536586-.62337399-.3527236-.96987806-.2598781-.34650406.0928455-.61715454.363496-.71000002.71-.09284548.3465041.00621949.7162195.25987808.9698781 1.06 1.06 1.19 1.29 1.71 1.29z" fill="#6c6c6c" data-original="#000000" style="" class=""/><path id="Shape" d="m6 38c.55228475 0 1-.4477153 1-1s-.44771525-1-1-1h-2c-.55228475 0-1 .4477153-1 1s.44771525 1 1 1z" fill="#6c6c6c" data-original="#000000" style="" class=""/></g></g></g></svg>
