<?xml version="1.0"?>
<svg xmlns="http://www.w3.org/2000/svg" xmlns:xlink="http://www.w3.org/1999/xlink" xmlns:svgjs="http://svgjs.com/svgjs" version="1.1" width="512" height="512" x="0" y="0" viewBox="0 0 511.993 511.993" style="enable-background:new 0 0 512 512" xml:space="preserve" class=""><g><g xmlns="http://www.w3.org/2000/svg"><g><path d="m466.734 163.947v257.216l-210.737 16.63-210.737-16.63v-257.216c0-21.83 17.69-39.509 39.509-39.509h342.455c21.82 0 39.51 17.679 39.51 39.509z" fill="#f6f9f9" data-original="#f6f9f9" style="" class=""/><path d="m466.734 404.204v16.959l-210.737 16.63-210.737-16.63v-16.959z" fill="#ffffff" data-original="#dae7ef" style="" class=""/><path d="m265.97 437.007-9.98.79-210.727-16.63v-257.216c0-21.83 17.68-39.509 39.499-39.509h19.96c-21.82 0-39.509 17.679-39.509 39.509v257.216z" fill="#ffffff" data-original="#dae7ef" style="" class=""/><path d="m466.731 421.167h-421.468c-20.856 0-37.763 16.907-37.763 37.763 0 20.856 16.907 37.763 37.763 37.763h421.468c20.856 0 37.763-16.907 37.763-37.763-.001-20.856-16.908-37.763-37.763-37.763z" fill="#f6f9f9" data-original="#f6f9f9" style="" class=""/><path d="m498.456 479.403c-6.72 10.4-18.42 17.29-31.73 17.29h-421.463c-10.43 0-19.87-4.23-26.71-11.06-6.83-6.84-11.06-16.28-11.06-26.699 0-20.86 16.91-37.77 37.769-37.77h12.16c-3.81 5.9-6.03 12.93-6.03 20.47 0 10.43 4.23 19.87 11.06 26.71 6.83 6.83 16.27 11.06 26.7 11.06h409.304z" fill="#ffffff" data-original="#dae7ef" style="" class=""/><path d="m83.26 364.61v-182.11c0-11.08 8.982-20.063 20.063-20.063h305.349c11.08 0 20.062 8.982 20.062 20.062v182.11c0 10.247-8.307 18.553-18.553 18.553h-308.368c-10.247.001-18.553-8.305-18.553-18.552z" fill="#ffffff" data-original="#f6de81" style="" class=""/><path d="m300.384 454.421h-88.774c-18.365 0-33.254-14.888-33.254-33.254h155.281c0 18.366-14.888 33.254-33.253 33.254z" fill="#ffffff" data-original="#dae7ef" style="" class=""/><path d="m499.493 33.375-11.4 48.09c-2.54 10.71-15.72 14.65-23.72 7.1l-7.2-6.8-61.98 65.67-146.73 155.47c-2.78 2.95-6.64 4.65-10.69 4.7-4.04.06-7.96-1.52-10.82-4.39l-62.64-62.64-81.05 67.57v-39.05l72.36-60.33c5.96-4.97 14.73-4.57 20.21.91l61.41 61.41 116.7-123.65 81.41-86.26-6.92-6.53c-8.01-7.56-4.83-20.94 5.71-24.09l47.35-14.17c10.54-3.15 20.54 6.29 18 16.99z" fill="#ffffff" data-original="#e28086" style="" class=""/><g><g><circle cx="133.301" cy="344.5" fill="#ffffff" r="17.933" data-original="#c0e3a0" style="" class=""/></g><g><circle cx="215.098" cy="344.5" fill="#ffffff" r="17.933" data-original="#c0e3a0" style="" class=""/></g><g><circle cx="296.895" cy="344.5" fill="#ffffff" r="17.933" data-original="#c0e3a0" style="" class=""/></g><g><circle cx="378.692" cy="344.5" fill="#ffffff" r="17.933" data-original="#c0e3a0" style="" class=""/></g></g><g><path d="m264.233 15.301h-137.533c-20.747 0-37.566 16.819-37.566 37.566v82.541c0 20.747 16.819 37.566 37.566 37.566h54.465l39.255 39.255c10.555 10.555 28.601 3.079 28.601-11.847v-27.408h15.212c20.747 0 37.566-16.819 37.566-37.566v-82.542c-.001-20.747-16.819-37.565-37.566-37.565z" fill="#0190fd" data-original="#9dc6fb" style="" class=""/><g fill="#80b4fb"><path d="m110.174 52.866v82.54c0 20.75 16.81 37.56 37.56 37.56h-21.04c-20.74 0-37.56-16.81-37.56-37.56v-82.54c0-20.75 16.82-37.57 37.56-37.57h21.04c-20.75 0-37.56 16.82-37.56 37.57z" fill="#ffffff" data-original="#80b4fb" style="" class=""/><path d="m242.784 213.436c-6.21 4.94-15.76 5.4-22.37-1.21l-39.25-39.26h21.04l39.25 39.26c.43.43.88.83 1.33 1.21z" fill="#ffffff" data-original="#80b4fb" style="" class=""/></g></g></g><g><path d="m474.233 414.301v-250.355c0-23.674-17.594-43.306-40.391-46.535l23.635-25.043 1.747 1.65c5.73 5.408 13.659 7.287 21.206 5.028 7.549-2.259 13.142-8.185 14.96-15.853l11.399-48.088c1.819-7.662-.515-15.464-6.241-20.872-5.729-5.41-13.655-7.294-21.207-5.035l-47.347 14.169c-7.548 2.256-13.141 8.179-14.96 15.843-1.82 7.667.517 15.475 6.25 20.887l1.465 1.382-11.671 12.365c-2.843 3.012-2.706 7.759.306 10.602 3.013 2.844 7.759 2.706 10.602-.306l16.82-17.82c1.365-1.446 2.1-3.376 2.043-5.365-.058-1.988-.903-3.873-2.35-5.238l-6.919-6.53c-2.579-2.435-2.224-5.367-1.952-6.514.272-1.146 1.271-3.922 4.664-4.937l47.347-14.169c3.396-1.012 5.753.76 6.61 1.57.857.809 2.761 3.062 1.944 6.503l-11.399 48.089c-.817 3.446-3.535 4.605-4.665 4.943-1.129.338-4.036.863-6.608-1.565l-7.2-6.8c-1.446-1.365-3.371-2.095-5.365-2.044-1.989.057-3.874.902-5.239 2.349l-208.711 221.148c-1.381 1.465-3.322 2.32-5.344 2.345-2.022.029-3.982-.766-5.405-2.194l-62.64-62.64c-2.744-2.745-7.127-2.942-10.106-.458l-68.747 57.313v-19.521l69.663-58.082c3-2.501 7.344-2.306 10.104.454l61.41 61.41c1.433 1.434 3.394 2.232 5.412 2.196 2.026-.029 3.955-.877 5.346-2.351l160.74-170.31c2.843-3.012 2.706-7.759-.306-10.602-3.013-2.844-7.76-2.706-10.602.306l-20.113 21.31h-63.118v-64.07c0-24.85-20.216-45.066-45.065-45.066h-137.535c-24.849 0-45.065 20.216-45.065 45.066v64.186c-24.462 1.622-43.871 22.028-43.871 46.893v250.355c-21.401 3.585-37.764 22.227-37.764 44.63 0 24.958 20.305 45.263 45.263 45.263h421.467c24.958 0 45.263-20.305 45.263-45.263 0-22.401-16.361-41.043-37.76-44.629zm-310.379-163.579 57.787 57.787c4.267 4.28 10.168 6.669 16.225 6.595 6.048-.074 11.9-2.646 16.053-7.051l130.354-138.118h24.401c6.926 0 12.56 5.634 12.56 12.56v154.51h-18.237c-3.207-10.376-12.889-17.937-24.304-17.937s-21.097 7.561-24.304 17.937h-33.189c-3.207-10.376-12.889-17.937-24.304-17.937s-21.097 7.561-24.304 17.937h-33.189c-3.207-10.376-12.889-17.937-24.304-17.937s-21.097 7.561-24.304 17.937h-33.189c-3.207-10.376-12.889-17.937-24.304-17.937-11.416 0-21.097 7.561-24.304 17.937h-18.235v-25.348zm225.271 93.778c0 5.753-4.68 10.433-10.433 10.433-5.752 0-10.433-4.68-10.433-10.433 0-5.752 4.68-10.433 10.433-10.433 5.753.001 10.433 4.681 10.433 10.433zm-81.797 0c0 5.753-4.68 10.433-10.433 10.433s-10.433-4.68-10.433-10.433c0-5.752 4.68-10.433 10.433-10.433s10.433 4.681 10.433 10.433zm-81.797 0c0 5.753-4.68 10.433-10.433 10.433s-10.433-4.68-10.433-10.433c0-5.752 4.68-10.433 10.433-10.433s10.433 4.681 10.433 10.433zm-81.797 0c0 5.753-4.68 10.433-10.433 10.433s-10.433-4.68-10.433-10.433c0-5.752 4.68-10.433 10.433-10.433 5.753.001 10.433 4.681 10.433 10.433zm93.353-84.178-55.951-55.951c-8.285-8.285-21.318-8.872-30.316-1.367l-60.057 50.072v-70.582c0-5.284 3.313-9.891 8.061-11.717 7.676 6.063 17.357 9.695 27.876 9.695h51.358l37.059 37.059c4.7 4.701 10.752 7.166 16.997 7.166 3.146 0 6.341-.626 9.435-1.908 9.235-3.825 14.973-12.412 14.973-22.408v-19.908h7.712c10.999 0 21.085-3.966 28.918-10.536h29.244zm121.172-128.386-21.708 23h-31.709c2.854-5.912 4.455-12.537 4.455-19.529v-3.471zm-261.625-79.07c0-16.579 13.487-30.066 30.065-30.066h137.533c16.578 0 30.065 13.487 30.065 30.066v82.541c0 16.578-13.487 30.065-30.065 30.065h-15.212c-4.142 0-7.5 3.358-7.5 7.5v27.408c0 5.738-4.373 7.995-5.713 8.55-1.34.554-6.027 2.051-10.085-2.006l-39.255-39.255c-1.406-1.407-3.314-2.197-5.303-2.197h-54.464c-16.578 0-30.065-13.487-30.065-30.065v-82.541zm-15 79.226v3.315c0 8.761 2.522 16.94 6.865 23.867-7.7 4.936-12.736 13.569-12.736 23.221v182.11c0 14.37 11.686 26.06 26.05 26.06h54.48c4.142 0 7.5-3.358 7.5-7.5s-3.358-7.5-7.5-7.5h-54.48c-6.093 0-11.05-4.961-11.05-11.06v-12.6h18.236c3.209 10.373 12.889 17.929 24.302 17.929 11.412 0 21.092-7.557 24.302-17.929h33.193c3.209 10.373 12.889 17.929 24.302 17.929s21.092-7.557 24.302-17.929h33.193c3.209 10.373 12.889 17.929 24.302 17.929s21.092-7.557 24.302-17.929h33.193c3.209 10.373 12.889 17.929 24.302 17.929s21.093-7.557 24.302-17.929h18.239v12.6c0 6.099-4.957 11.06-11.05 11.06h-224.05c-4.142 0-7.5 3.358-7.5 7.5s3.358 7.5 7.5 7.5h224.05c14.364 0 26.05-11.69 26.05-26.06v-182.11c0-15.197-12.363-27.56-27.56-27.56h-10.244l21.705-22.998h7.089c17.65 0 32.01 14.359 32.01 32.01v249.721h-406.47v-249.722c0-16.591 12.689-30.271 28.871-31.854zm243.389 296.575c-3.219 10.553-13.047 18.253-24.64 18.253h-88.774c-11.592 0-21.421-7.7-24.64-18.253zm141.707 60.526h-421.467c-16.687 0-30.263-13.576-30.263-30.263s13.576-30.263 30.263-30.263h126.297c3.532 18.9 20.141 33.253 40.05 33.253h88.774c19.909 0 36.518-14.354 40.05-33.253h126.296c16.687 0 30.263 13.576 30.263 30.263s-13.576 30.263-30.263 30.263z" fill="#6c6c6c" data-original="#000000" style="" class=""/><path d="m339.813 262.239h57.862c4.142 0 7.5-3.358 7.5-7.5s-3.358-7.5-7.5-7.5h-57.862c-4.142 0-7.5 3.358-7.5 7.5s3.358 7.5 7.5 7.5z" fill="#6c6c6c" data-original="#000000" style="" class=""/><path d="m311.879 292.297h85.796c4.142 0 7.5-3.358 7.5-7.5s-3.358-7.5-7.5-7.5h-85.796c-4.142 0-7.5 3.358-7.5 7.5s3.358 7.5 7.5 7.5z" fill="#6c6c6c" data-original="#000000" style="" class=""/><path d="m126.034 58.496h90.784c4.142 0 7.5-3.358 7.5-7.5s-3.358-7.5-7.5-7.5h-90.784c-4.142 0-7.5 3.358-7.5 7.5s3.358 7.5 7.5 7.5z" fill="#6c6c6c" data-original="#000000" style="" class=""/><path d="m126.034 91.418h90.784c4.142 0 7.5-3.358 7.5-7.5s-3.358-7.5-7.5-7.5h-90.784c-4.142 0-7.5 3.358-7.5 7.5s3.358 7.5 7.5 7.5z" fill="#6c6c6c" data-original="#000000" style="" class=""/><path d="m126.034 124.34h90.784c4.142 0 7.5-3.358 7.5-7.5s-3.358-7.5-7.5-7.5h-90.784c-4.142 0-7.5 3.358-7.5 7.5s3.358 7.5 7.5 7.5z" fill="#6c6c6c" data-original="#000000" style="" class=""/></g></g></g></svg>
