<?xml version="1.0"?>
<svg xmlns="http://www.w3.org/2000/svg" xmlns:xlink="http://www.w3.org/1999/xlink" xmlns:svgjs="http://svgjs.com/svgjs" version="1.1" width="512" height="512" x="0" y="0" viewBox="0 0 476.43233 476" style="enable-background:new 0 0 512 512" xml:space="preserve" class=""><g><path xmlns="http://www.w3.org/2000/svg" d="m421.71875 185.304688-1.640625-67.179688c-.757813-14.984375 10.394531-27.921875 25.332031-29.378906l23.019532 145.269531c.277343 18.234375-5.320313 36.070313-15.96875 50.871094l-56.351563 68.199219c-5.1875 6.273437-7.746094 14.3125-7.140625 22.429687l3.71875 21.199219-80.667969-38.429688.300781-.640625c-6.21875-30.59375 5.179688-62.097656 29.539063-81.628906l4.46875-3.589844c7.003906-5.617187 12.648437-12.742187 16.511719-20.851562l21.539062-45.21875c6.757813-14.191407 21.699219-22.617188 37.339844-21.050781zm0 0" fill="#ffffff" data-original="#f7caa5" style="" class=""/><path xmlns="http://www.w3.org/2000/svg" d="m392.6875 396.714844 6.621094 3.152344-23.609375 49.589843-108.820313-51.832031 23.621094-49.589844 21.519531 10.25zm0 0" fill="#0190fd" data-original="#00acea" style="" class=""/><path xmlns="http://www.w3.org/2000/svg" d="m238.21875 8.214844c55.578125 0 100.636719 45.050781 100.640625 100.632812.003906 55.578125-45.050781 100.636719-100.628906 100.636719-55.582031.003906-100.636719-45.050781-100.640625-100.628906s45.050781-100.636719 100.628906-100.640625zm0 0" fill="#ffffff" data-original="#00efd1" style="" class=""/><path xmlns="http://www.w3.org/2000/svg" d="m83.75 396.714844 80.667969-38.429688 21.519531-10.25 23.621094 49.589844-108.820313 51.832031-23.609375-49.589843zm0 0" fill="#0190fd" data-original="#00acea" style="" class=""/><path xmlns="http://www.w3.org/2000/svg" d="m54.71875 185.304688c15.640625-1.566407 30.582031 6.859374 37.339844 21.050781l21.539062 45.21875c3.863282 8.109375 9.507813 15.234375 16.511719 20.851562l4.46875 3.589844c24.359375 19.53125 35.761719 51.035156 29.542969 81.628906l.296875.640625-80.667969 38.429688 3.71875-21.199219c.605469-8.117187-1.953125-16.15625-7.140625-22.429687l-56.347656-68.199219c-10.652344-14.800781-16.25-32.636719-15.972657-50.871094l23.019532-145.269531c14.386718 1.402344 25.359375 13.488281 25.371094 27.941406 0 .480469-.019532.957031-.039063 1.4375zm0 0" fill="#ffffff" data-original="#f7caa5" style="" class=""/><g xmlns="http://www.w3.org/2000/svg" fill="#083863"><path d="m453.3125 87.496094c-.664062-4.183594-4.46875-7.125-8.679688-6.710938-19.160156 1.84375-33.488281 18.414063-32.546874 37.636719l1.4375 58.925781c-15.753907 1.589844-29.539063 11.28125-36.367188 25.570313l-21.535156 45.21875c-3.355469 7.011719-8.242188 13.183593-14.300782 18.054687l-4.46875 3.585938c-22.765624 18.164062-35.449218 46.132812-34.121093 75.226562l-8.792969-4.1875c-3.988281-1.902344-8.761719-.207031-10.664062 3.78125l-23.617188 49.589844c-1.902344 3.988281-.207031 8.761719 3.78125 10.664062l108.820312 51.828126c3.988282 1.902343 8.765626.207031 10.664063-3.78125l23.609375-49.589844c1.898438-3.992188.203125-8.765625-3.785156-10.664063l-2.890625-1.378906-2.9375-16.710937c-.359375-5.9375 1.554687-11.792969 5.355469-16.371094l56.347656-68.203125c.113281-.136719.222656-.277344.328125-.421875 11.613281-16.214844 17.738281-35.722656 17.476562-55.664063-.007812-.378906-.042969-.757812-.101562-1.128906zm-81.402344 351.296875-94.371094-44.949219 16.738282-35.144531 94.363281 44.953125zm74.199219-158.789063-56.167969 67.980469c-6.523437 7.859375-9.734375 17.941406-8.957031 28.121094.019531.265625.054687.53125.101563.792969l1.039062 5.921874-62.503906-29.777343c-4.394532-26.789063 6.027344-53.859375 27.25-70.789063l4.464844-3.585937c7.9375-6.382813 14.335937-14.464844 18.730468-23.652344l21.539063-45.222656c5.320312-11.136719 17.050781-17.742188 29.332031-16.523438.648438.066407 1.296875.152344 1.9375.257813l-31.488281 66.109375c-1.25 2.582031-1.015625 5.636719.605469 8 1.621093 2.367187 4.386718 3.683593 7.246093 3.453125 2.855469-.230469 5.375-1.976563 6.59375-4.574219l35.398438-74.328125c1.898437-3.992188.207031-8.765625-3.785157-10.664062-2.53125-1.207032-5.171874-2.175782-7.886718-2.894532l-1.484375-60.699218c0-.070313 0-.140626-.007813-.210938-.410156-7.875 3.832032-15.261719 10.84375-18.875l21.527344 135.847656c.097656 16.230469-4.914062 32.082032-14.316406 45.3125zm0 0" fill="#6c6c6c" data-original="#083863" style="" class=""/><path d="m17.8125 289.980469 56.355469 68.203125c3.800781 4.578125 5.714843 10.433594 5.351562 16.371094l-2.933593 16.710937-2.890626 1.375c-3.988281 1.898437-5.683593 6.675781-3.785156 10.664063l23.609375 49.589843c1.898438 3.992188 6.675781 5.683594 10.664063 3.785157l108.820312-51.832032c3.988282-1.898437 5.679688-6.671875 3.78125-10.660156l-23.621094-49.589844c-1.898437-3.992187-6.671874-5.683594-10.660156-3.785156l-8.792968 4.1875c1.328124-29.089844-11.355469-57.058594-34.117188-75.222656l-4.476562-3.59375c-6.058594-4.867188-10.945313-11.035156-14.296876-18.046875l-21.542968-45.21875c-6.828125-14.285157-20.609375-23.976563-36.363282-25.570313l1.441407-58.953125c.023437-.570312.042969-1.140625.042969-1.707031.054687-18.597656-14.078126-34.164062-32.59375-35.902344-4.214844-.417968-8.023438 2.527344-8.675782 6.710938l-23.019531 145.269531c-.0625.371094-.09375.75-.1015625 1.128906-.2617185 19.941407 5.8593755 39.449219 17.4765625 55.664063.105469.144531.214844.285156.328125.421875zm181.082031 103.863281-94.375 44.949219-16.730469-35.140625 94.363282-44.953125zm-161.363281-295.007812c6.691406 3.433593 10.890625 10.328124 10.867188 17.851562 0 .363281-.015626.730469-.035157 1.097656v.148438l-1.480469 60.699218c-2.710937.71875-5.355468 1.6875-7.886718 2.894532-3.992188 1.898437-5.683594 6.671875-3.785156 10.660156l35.398437 74.332031c1.21875 2.59375 3.734375 4.339844 6.59375 4.570313 2.859375.234375 5.625-1.082032 7.246094-3.449219 1.621093-2.367187 1.851562-5.417969.605469-8.003906l-31.488282-66.109375c.648438-.109375 1.300782-.195313 1.953125-.261719 12.277344-1.210937 24 5.398437 29.316407 16.53125l21.542968 45.222656c4.390625 9.183594 10.789063 17.265625 18.722656 23.644531l4.472657 3.59375c21.21875 16.929688 31.636719 44 27.246093 70.785157l-62.515624 29.777343 1.039062-5.921874c.046875-.261719.082031-.527344.101562-.792969.777344-10.175781-2.433593-20.257813-8.953124-28.117188l-56.171876-67.984375c-9.40625-13.230468-14.417968-29.078125-14.320312-45.3125zm0 0" fill="#6c6c6c" data-original="#083863" style="" class=""/><path d="m238.21875 217.484375c60 .003906 108.640625-48.632813 108.640625-108.632813 0-59.996093-48.636719-108.636718-108.636719-108.636718-60 .003906-108.636718 48.640625-108.632812 108.640625.066406 59.96875 48.664062 108.5625 108.628906 108.628906zm0-201.269531c51.160156 0 92.636719 41.46875 92.640625 92.632812.003906 51.160156-41.46875 92.636719-92.628906 92.636719-51.164063.003906-92.636719-41.46875-92.640625-92.628906.054687-51.136719 41.492187-92.578125 92.628906-92.640625zm0 0" fill="#6c6c6c" data-original="#083863" style="" class=""/><path d="m232.628906 124.835938h44.75c4.417969 0 8-3.582032 8-8 0-4.417969-3.582031-8-8-8h-37.160156v-50.328126c0-4.421874-3.582031-8-8-8s-8 3.578126-8 8v58.738282c0 4.417968 3.992188 7.589844 8.410156 7.589844zm0 0" fill="#6c6c6c" data-original="#083863" style="" class=""/></g></g></svg>
